<?xml version="1.0" encoding="utf-8"?>
<!-- Generator: Adobe Illustrator 22.0.1, SVG Export Plug-In . SVG Version: 6.00 Build 0)  -->
<svg version="1.1" id="Capa_1" xmlns="http://www.w3.org/2000/svg" xmlns:xlink="http://www.w3.org/1999/xlink" x="0px" y="0px"
	 viewBox="0 0 57.2 61.8" style="enable-background:new 0 0 57.2 61.8;" xml:space="preserve">
<style type="text/css">
	.st0{fill:#FFFFFF;}
</style>
<g>
	<path class="st0" d="M39.2,31.5c-0.5,2-0.8,3.5-0.7,4.8c0,1.2,0.2,2.2,0.6,2.9c0.4,0.7,0.9,1.2,1.6,1.4c0.7,0.2,1.4,0.4,2.2,0.4
		c1.3,0,2.5-0.4,3.6-1.1c1.1-0.7,2.1-1.7,3-3.1c0.9-1.3,1.5-2.9,2-4.7c0.5-1.8,0.8-3.9,0.8-6.1c0-3.6-0.6-6.7-1.7-9.4
		c-1.1-2.7-2.7-4.9-4.7-6.7c-2-1.8-4.4-3.1-7.1-4C36,5,33.1,4.6,29.9,4.6c-3.5,0-6.7,0.7-9.7,2c-3,1.3-5.6,3.1-7.9,5.5
		S8.3,17,7,20.2c-1.3,3.2-2,6.6-2,10.4c0,4.4,0.7,8.2,2.1,11.5c1.4,3.3,3.3,6.1,5.6,8.3c2.4,2.2,5.2,3.9,8.4,5.1
		c3.2,1.1,6.7,1.7,10.4,1.7c3.9,0,7.4-0.4,10.4-1.3c3-0.9,5.6-1.9,7.8-3.2c0.5-0.3,1-0.4,1.4-0.3c0.4,0.1,0.7,0.4,0.8,0.9l1,2.6
		c-2.8,1.9-5.9,3.3-9.5,4.4c-3.5,1.1-7.5,1.6-11.9,1.6c-4.5,0-8.6-0.7-12.5-2.1c-3.8-1.4-7.2-3.5-10-6.1c-2.8-2.7-5-5.9-6.6-9.8
		C0.8,39.9,0,35.5,0,30.6c0-2.8,0.4-5.5,1.1-8.1c0.7-2.6,1.7-5,3-7.3c1.3-2.3,2.8-4.3,4.6-6.2s3.8-3.5,6-4.8
		c2.2-1.3,4.6-2.4,7.2-3.1c2.6-0.7,5.2-1.1,8-1.1c2.4,0,4.7,0.3,7,0.8c2.3,0.5,4.4,1.3,6.4,2.3c2,1,3.9,2.2,5.6,3.7
		c1.7,1.5,3.1,3.2,4.4,5.1c1.2,1.9,2.2,4.1,2.9,6.4c0.7,2.4,1,4.9,1,7.7c0,2.8-0.4,5.4-1.2,7.7c-0.8,2.4-1.9,4.4-3.2,6.1
		c-1.4,1.7-3,3.1-4.9,4.1c-1.9,1-3.9,1.5-6.1,1.5c-2,0-3.6-0.5-4.9-1.4c-1.3-1-2.1-2.4-2.5-4.4c-1.5,2.1-3.1,3.5-4.8,4.4
		c-1.8,0.9-3.6,1.4-5.7,1.4c-1.5,0-2.9-0.3-4-0.8c-1.1-0.5-2.1-1.3-2.8-2.2c-0.7-0.9-1.3-2.1-1.7-3.3c-0.4-1.3-0.6-2.7-0.6-4.2
		c0-2.2,0.4-4.4,1.3-6.6c0.8-2.2,2.1-4.2,3.7-6c1.6-1.8,3.7-3.3,6.1-4.4c2.4-1.1,5.3-1.7,8.5-1.7c1.7,0,3.2,0.1,4.6,0.4
		c1.3,0.3,2.6,0.7,3.7,1.2L39.2,31.5z M36.8,20.8c-1-0.2-2.1-0.3-3.3-0.3c-1.9,0-3.7,0.4-5.3,1.2c-1.6,0.8-3,1.9-4.2,3.2
		c-1.2,1.3-2.1,2.8-2.7,4.5c-0.7,1.7-1,3.4-1,5.2c0,1.9,0.4,3.3,1.3,4.5c0.9,1.1,2.1,1.7,3.8,1.7c0.8,0,1.6-0.1,2.4-0.4
		s1.6-0.7,2.4-1.4c0.8-0.6,1.5-1.5,2.1-2.6c0.6-1.1,1.2-2.5,1.6-4.2L36.8,20.8z"/>
</g>
</svg>
