<?xml version="1.0" encoding="utf-8"?>
<!-- Generator: Adobe Illustrator 22.0.1, SVG Export Plug-In . SVG Version: 6.00 Build 0)  -->
<svg version="1.1" id="Capa_1" xmlns="http://www.w3.org/2000/svg" xmlns:xlink="http://www.w3.org/1999/xlink" x="0px" y="0px"
	 viewBox="0 0 54.1 54.6" style="enable-background:new 0 0 54.1 54.6;" xml:space="preserve">
<style type="text/css">
	.st0{fill:#F4EFF0;}
</style>
<g>
	<path class="st0" d="M0,14.4c0.5-0.8,0.5-1.8,0.7-2.8C2.2,5.3,7.1,1,13.8,0.6c8.7-0.6,17.4-0.6,26,0c7.6,0.5,13.1,6.1,13.5,13.8
		c0.5,8.3,0.5,16.6,0,24.9c-0.5,7.7-5.9,13.3-13.7,13.8c-8.5,0.5-17.1,0.5-25.6,0C6.9,52.5,1.9,48,0.5,40.9
		c-0.1-0.6,0.1-1.3-0.5-1.7C0,30.9,0,22.6,0,14.4z M26.8,48.5c3.8,0,7.7,0,11.5-0.2c6.4-0.3,10-3.9,10.3-10.3c0.3-7.5,0.3-15,0-22.5
		c-0.3-6.3-3.9-9.9-10.2-10.2c-7.7-0.4-15.4-0.4-23.1,0C9,5.5,5.3,9.1,5,15.3c-0.4,7.6-0.4,15.3,0,23c0.3,6.2,4,9.7,10.1,10
		C19.1,48.5,22.9,48.5,26.8,48.5z"/>
	<path class="st0" d="M26.8,40.4c-7.6,0-13.7-6.1-13.8-13.6c0-7.5,6.2-13.6,13.8-13.6c7.6,0,13.7,6.1,13.8,13.6
		C40.6,34.3,34.4,40.4,26.8,40.4z M17.9,26.7c0,4.9,3.9,8.9,8.8,8.9c4.9,0,8.9-3.8,8.9-8.7c0.1-4.9-3.8-8.9-8.8-9
		C22,17.9,18,21.8,17.9,26.7z"/>
	<path class="st0" d="M41.1,9.4c1.7,0,3.2,1.4,3.3,3.1c0.1,1.8-1.4,3.3-3.2,3.3c-1.7,0-3.2-1.4-3.2-3.2C37.9,10.9,39.3,9.4,41.1,9.4
		z"/>
</g>
</svg>
