<?xml version="1.0" encoding="utf-8"?>
<!-- Generator: Adobe Illustrator 22.0.1, SVG Export Plug-In . SVG Version: 6.00 Build 0)  -->
<svg version="1.1" id="Capa_1" xmlns="http://www.w3.org/2000/svg" xmlns:xlink="http://www.w3.org/1999/xlink" x="0px" y="0px"
	 viewBox="0 0 350.4 89.3" style="enable-background:new 0 0 350.4 89.3;" xml:space="preserve">
<style type="text/css">
	.st0{fill:#FFFFFF;}
	.st1{fill:#BDBEBE;}
</style>
<g>
	<path class="st0" d="M28.3,16.1c-8.1,9.3-10.4,12.5-16.4,18.6l20,22h-7.5l-16-18.7l-2.6,2.6v16.1H0.1V0.4h5.7v33.5
		c5.4-5.5,10.9-11.2,15.3-17.8H28.3z"/>
	<path class="st0" d="M45.7,18.1c3.9-1.5,7.4-2.8,11.7-2.8c7.8,0,12.5,6.4,12.5,13.1v17.6c0,3.7,0.5,7.5,1.7,11l-5.3,0.7l-1.4-5.1
		c-2.7,3.3-5.9,4.9-10.1,4.9c-7.8,0-12.1-6.1-12.1-13.3c0-7.8,4.8-14.7,13-14.7c3,0,5.9,0.9,8.5,2v-3.9c0-4.5-2.7-7.7-7-7.7
		c-3.6,0-6.9,1.7-10.2,3L45.7,18.1z M64.1,36.4c-2.4-1.1-5-2-7.8-2c-5.8,0-8.1,5-8.1,10.2c0,3.8,2,8.2,6.4,8.2c4.4,0,7.1-3.7,9.4-7
		V36.4z"/>
	<path class="st0" d="M98.3,56.8h-5.7V33.5c0-6.8-0.5-12.2-1.6-17.3h5.5l1.3,7.8c3.1-4.8,6.5-8.6,12.6-8.6c7.6,0,9.4,7.4,9.4,13.6
		h-5.7c-0.2-3,0.3-8.8-4-8.8c-4.2,0-11.9,6.4-11.9,19.8V56.8z"/>
	<path class="st0" d="M132.9,36.5c0-15.7,8.4-21.2,16.1-21.2c14.4,0,16.2,14.6,16.2,21.2c0,15.7-8.4,21.1-16.2,21.1
		C141.9,57.6,132.9,52.9,132.9,36.5z M159.5,36.5c0-7-1.6-16.4-10.5-16.4c-8.9,0-10.4,9.4-10.4,16.4c0,7,1.5,16.3,10.4,16.3
		C157.9,52.9,159.5,43.5,159.5,36.5z"/>
	<path class="st0" d="M192.2,5.2h-11.6V0.4h17.3v56.4h-5.7V5.2z"/>
	<path class="st0" d="M238.4,20.9h-11.6v-4.8h17.3v40.7h-5.7V20.9z M245.8,5.8c0,2.7-2.1,4.8-4.8,4.8s-4.8-2.1-4.8-4.8
		c0-2.7,2.1-4.8,4.8-4.8S245.8,3.1,245.8,5.8z"/>
	<path class="st0" d="M277.2,56.8h-5.7V36.4c0-6.8-0.3-13.8-1.8-20.2h5.5l1.3,7.4c2.9-4.8,8.1-8.3,13.8-8.3c6.5,0,9.8,5.9,9.8,12.8
		v28.7h-5.7v-27c0-3.9,0-9.7-5-9.7c-5.4,0-12.2,5.5-12.2,19.8V56.8z"/>
	<path class="st0" d="M319.3,18.1c3.9-1.5,7.4-2.8,11.7-2.8c7.8,0,12.5,6.4,12.5,13.1v17.6c0,3.7,0.5,7.5,1.7,11l-5.3,0.7l-1.4-5.1
		c-2.7,3.3-5.9,4.9-10.1,4.9c-7.8,0-12.1-6.1-12.1-13.3c0-7.8,4.8-14.7,13-14.7c3,0,5.9,0.9,8.5,2v-3.9c0-4.5-2.7-7.7-7-7.7
		c-3.6,0-6.9,1.7-10.2,3L319.3,18.1z M337.7,36.4c-2.4-1.1-5-2-7.8-2c-5.8,0-8.1,5-8.1,10.2c0,3.8,2,8.2,6.4,8.2
		c4.4,0,7.1-3.7,9.4-7V36.4z"/>
</g>
<g>
	<path class="st1" d="M71.3,85.1c-1.2,0.9-2.4,1.7-3.6,2.3c-1.2,0.6-2.5,1-3.9,1.3S60.9,89,59.3,89c-2.3,0-4.3-0.4-6.1-1.2
		s-3.4-1.9-4.6-3.3c-1.3-1.4-2.3-3.2-2.9-5.2c-0.7-2-1-4.3-1-6.8c0-3.2,0.5-6.2,1.6-9.1c1-2.9,2.5-5.4,4.3-7.6
		c1.8-2.2,4-3.9,6.6-5.2s5.3-1.9,8.3-1.9c2.6,0,4.8,0.5,6.7,1.4c1.8,0.9,3.5,2.3,4.9,4.2l-3.4,3.9c-0.2,0.3-0.5,0.5-0.8,0.7
		s-0.7,0.3-1.1,0.3c-0.5,0-0.9-0.1-1.2-0.4c-0.4-0.2-0.8-0.5-1.2-0.8c-0.4-0.3-1-0.5-1.6-0.8c-0.6-0.2-1.5-0.4-2.5-0.4
		c-1.3,0-2.6,0.4-3.8,1.1c-1.2,0.7-2.3,1.8-3.2,3.2c-0.9,1.4-1.7,3-2.2,5c-0.6,1.9-0.8,4.1-0.8,6.6c0,2.8,0.6,4.9,1.8,6.3
		c1.2,1.4,2.8,2.1,4.7,2.1c1.3,0,2.4-0.2,3.3-0.6c0.9-0.4,1.6-0.8,2.2-1.3c0.6-0.5,1.2-0.9,1.7-1.3c0.5-0.4,1.1-0.6,1.7-0.6
		c0.4,0,0.7,0.1,1,0.2c0.3,0.2,0.6,0.4,0.9,0.7l2.7,3.2C73.7,82.9,72.5,84.1,71.3,85.1z"/>
	<path class="st1" d="M93.3,55.2c1.8-2.2,3.8-3.9,5.9-4.9s4.3-1.6,6.5-1.6c1.6,0,3.1,0.3,4.5,1s2.4,1.6,3.3,2.9
		c0.9,1.3,1.5,2.8,1.8,4.7c0.4,1.8,0.4,4,0.1,6.3l-3,24.9h-10.5l2.9-24.9c0.3-2.4,0.2-4-0.3-5c-0.5-1-1.5-1.5-2.9-1.5
		c-0.9,0-1.8,0.3-2.8,0.8c-1,0.5-1.9,1.2-2.8,2.2s-1.7,2.1-2.5,3.4c-0.8,1.3-1.4,2.8-1.9,4.5l-2.5,20.6H78.8l6.9-56.7h10.5
		L93.3,55.2z"/>
	<path class="st1" d="M143.3,81.1c-1.7,2.5-3.5,4.4-5.6,5.8c-2.1,1.4-4.3,2.1-6.8,2.1c-1.4,0-2.8-0.3-4.1-0.9
		c-1.3-0.6-2.5-1.4-3.4-2.6c-1-1.2-1.8-2.6-2.3-4.4s-0.9-3.8-0.9-6.2s0.3-4.6,0.9-6.9c0.6-2.2,1.4-4.3,2.5-6.3c1.1-2,2.4-3.7,4-5.4
		c1.6-1.6,3.3-3,5.2-4.2c1.9-1.2,4-2.1,6.2-2.7c2.2-0.6,4.6-1,7.1-1c1.8,0,3.6,0.1,5.5,0.4c1.8,0.3,3.6,0.7,5.4,1.4l-4.7,38h-5.6
		c-0.7,0-1.2-0.1-1.7-0.3c-0.4-0.2-0.8-0.4-1.1-0.7c-0.3-0.3-0.5-0.7-0.6-1.1c-0.1-0.4-0.2-0.8-0.2-1.3L143.3,81.1z M145.9,56
		c-0.2,0-0.5,0-0.7,0c-0.2,0-0.5,0-0.7,0c-2,0-3.9,0.5-5.6,1.4s-3.2,2.2-4.4,3.7c-1.2,1.6-2.2,3.4-2.9,5.5c-0.7,2.1-1,4.3-1,6.6
		c0,2.6,0.4,4.5,1.2,5.7c0.8,1.2,1.9,1.8,3.2,1.8c0.9,0,1.9-0.3,2.8-1s1.8-1.6,2.6-2.8c0.8-1.2,1.6-2.6,2.2-4.2
		c0.7-1.6,1.3-3.3,1.8-5.1L145.9,56z"/>
	<path class="st1" d="M160.2,88.4l4.8-39.2h5.4c1.1,0,1.9,0.3,2.5,0.8c0.6,0.5,0.9,1.4,0.9,2.5l-0.1,3.3c1.7-2.5,3.6-4.3,5.5-5.5
		c2-1.2,4-1.8,6.2-1.8c2.3,0,4.2,0.8,5.6,2.3c1.4,1.5,2.3,3.7,2.6,6.6c1.8-3.1,3.8-5.3,5.9-6.8c2.1-1.4,4.5-2.2,7.1-2.2
		c1.6,0,3.1,0.3,4.4,1s2.3,1.6,3.2,2.9c0.8,1.3,1.4,2.8,1.7,4.7c0.3,1.8,0.3,4,0,6.3l-2.9,24.9h-10.3l2.9-24.9c0.3-2.4,0.2-4-0.2-5
		c-0.4-1-1.3-1.5-2.5-1.5c-0.9,0-1.7,0.2-2.6,0.7c-0.8,0.5-1.6,1.1-2.3,2c-0.7,0.9-1.4,2-2.1,3.2c-0.6,1.3-1.2,2.7-1.6,4.3
		l-2.5,21.1h-10.3l3-24.9c0.3-2.4,0.2-4-0.2-5c-0.4-1-1.2-1.5-2.5-1.5c-0.9,0-1.8,0.2-2.6,0.7c-0.8,0.5-1.6,1.2-2.4,2.1
		c-0.7,0.9-1.4,2-2.1,3.3s-1.2,2.8-1.6,4.4l-2.5,20.8H160.2z"/>
	<path class="st1" d="M236.2,89c-2.2,0-4.2-0.4-6.1-1.1c-1.9-0.7-3.5-1.8-4.9-3.2c-1.4-1.4-2.4-3.1-3.2-5.2c-0.8-2.1-1.2-4.4-1.2-7
		c0-3.4,0.6-6.6,1.7-9.5c1.1-2.9,2.6-5.5,4.5-7.6c1.9-2.1,4.1-3.8,6.7-5c2.5-1.2,5.2-1.8,8-1.8c2.2,0,4.2,0.4,6.1,1.1
		c1.9,0.7,3.5,1.8,4.8,3.2c1.4,1.4,2.4,3.1,3.2,5.2c0.8,2.1,1.2,4.4,1.2,7c0,3.4-0.6,6.5-1.7,9.5c-1.1,2.9-2.6,5.4-4.5,7.6
		c-1.9,2.1-4.1,3.8-6.7,5C241.7,88.4,239,89,236.2,89z M237.1,81.1c1.5,0,2.8-0.4,4-1.3c1.2-0.9,2.2-2,3-3.5
		c0.8-1.5,1.4-3.1,1.9-5.1c0.4-1.9,0.7-4,0.7-6.1c0-3-0.5-5.2-1.4-6.6c-0.9-1.4-2.4-2-4.4-2c-1.4,0-2.8,0.4-3.9,1.3
		c-1.2,0.8-2.2,2-3,3.4c-0.8,1.4-1.4,3.1-1.9,5.1s-0.7,4-0.7,6.1c0,3,0.5,5.2,1.4,6.6C233.7,80.4,235.2,81.1,237.1,81.1z"/>
	<path class="st1" d="M274,58c1-1.8,2-3.4,3.1-4.7c1.1-1.3,2.2-2.3,3.4-3c1.2-0.7,2.4-1.1,3.6-1.3c1.2-0.1,2.5,0.1,3.8,0.7l-1.9,9.8
		c-1.5-0.6-2.9-0.9-4.2-0.8c-1.3,0.1-2.5,0.6-3.6,1.5c-1.1,0.9-2.1,2.2-3,4s-1.7,4-2.3,6.6l-2.1,17.6h-10.3l4.8-39.2h5.4
		c1.1,0,1.9,0.3,2.5,0.8c0.6,0.5,0.9,1.4,0.9,2.5L274,58z"/>
	<path class="st1" d="M301.2,58c1-1.8,2-3.4,3.1-4.7c1.1-1.3,2.2-2.3,3.4-3c1.2-0.7,2.4-1.1,3.6-1.3c1.2-0.1,2.5,0.1,3.8,0.7
		l-1.9,9.8c-1.5-0.6-2.9-0.9-4.2-0.8c-1.3,0.1-2.5,0.6-3.6,1.5c-1.1,0.9-2.1,2.2-3,4s-1.7,4-2.3,6.6l-2.1,17.6h-10.3l4.8-39.2h5.4
		c1.1,0,1.9,0.3,2.5,0.8c0.6,0.5,0.9,1.4,0.9,2.5L301.2,58z"/>
	<path class="st1" d="M329.8,89c-2.2,0-4.2-0.4-6.1-1.1c-1.9-0.7-3.5-1.8-4.9-3.2c-1.4-1.4-2.4-3.1-3.2-5.2c-0.8-2.1-1.2-4.4-1.2-7
		c0-3.4,0.6-6.6,1.7-9.5c1.1-2.9,2.6-5.5,4.5-7.6c1.9-2.1,4.1-3.8,6.7-5c2.5-1.2,5.2-1.8,8-1.8c2.2,0,4.2,0.4,6.1,1.1
		c1.9,0.7,3.5,1.8,4.8,3.2c1.4,1.4,2.4,3.1,3.2,5.2c0.8,2.1,1.2,4.4,1.2,7c0,3.4-0.6,6.5-1.7,9.5c-1.1,2.9-2.6,5.4-4.5,7.6
		c-1.9,2.1-4.1,3.8-6.7,5C335.3,88.4,332.6,89,329.8,89z M330.7,81.1c1.5,0,2.8-0.4,4-1.3c1.2-0.9,2.2-2,3-3.5
		c0.8-1.5,1.4-3.1,1.9-5.1c0.4-1.9,0.7-4,0.7-6.1c0-3-0.5-5.2-1.4-6.6c-0.9-1.4-2.4-2-4.4-2c-1.4,0-2.8,0.4-3.9,1.3
		c-1.2,0.8-2.2,2-3,3.4c-0.8,1.4-1.4,3.1-1.9,5.1s-0.7,4-0.7,6.1c0,3,0.5,5.2,1.4,6.6C327.3,80.4,328.8,81.1,330.7,81.1z"/>
</g>
</svg>
