<?xml version="1.0" encoding="utf-8"?>
<!-- Generator: Adobe Illustrator 22.0.1, SVG Export Plug-In . SVG Version: 6.00 Build 0)  -->
<svg version="1.1" id="Capa_1" xmlns="http://www.w3.org/2000/svg" xmlns:xlink="http://www.w3.org/1999/xlink" x="0px" y="0px"
	 viewBox="0 0 81.2 42.9" style="enable-background:new 0 0 81.2 42.9;" xml:space="preserve">
<style type="text/css">
	.st0{fill:#F6F8F8;}
</style>
<polyline class="st0" points="5.8,30 13.4,24.8 13.4,19.8 -0.1,28.8 -0.1,31.3 13.4,40.3 13.4,35.2 5.8,30 "/>
<polyline class="st0" points="75.1,30.1 67.4,35.3 67.4,40.3 80.9,31.3 80.9,28.8 67.4,19.8 67.4,24.9 75.1,30.1 "/>
<g>
	<path class="st0" d="M34,0.5v24.1h1.3c0.5,0,0.8-0.1,1.1-0.2c0.3-0.1,0.6-0.4,0.8-0.8l7.2-8.9c0.3-0.4,0.6-0.7,1-0.9
		c0.4-0.2,0.8-0.3,1.4-0.3h6.4l-9,10.8c-0.6,0.8-1.3,1.5-2.1,2c0.4,0.3,0.8,0.6,1.1,1c0.3,0.4,0.6,0.8,0.9,1.2l9.7,14.1h-6.3
		c-0.5,0-1-0.1-1.4-0.3s-0.7-0.5-1-1l-7.4-11c-0.3-0.4-0.5-0.7-0.8-0.9c-0.3-0.1-0.7-0.2-1.3-0.2H34v13.3h-7v-42H34z"/>
</g>
</svg>
