<?xml version="1.0" encoding="utf-8"?>
<!-- Generator: Adobe Illustrator 22.0.1, SVG Export Plug-In . SVG Version: 6.00 Build 0)  -->
<svg version="1.1" id="Capa_1" xmlns="http://www.w3.org/2000/svg" xmlns:xlink="http://www.w3.org/1999/xlink" x="0px" y="0px"
	 viewBox="0 0 81.2 42.7" style="enable-background:new 0 0 81.2 42.7;" xml:space="preserve">
<style type="text/css">
	.st0{fill:#F4F6F6;}
</style>
<polyline class="st0" points="5.6,29.4 13.3,24.2 13.3,19.2 -0.2,28.2 -0.2,30.7 13.3,39.7 13.3,34.6 5.6,29.4 "/>
<polyline class="st0" points="74.9,29.5 67.2,34.7 67.2,39.7 80.7,30.7 80.7,28.2 67.2,19.2 67.2,24.4 74.9,29.5 "/>
<g>
	<path class="st0" d="M33.8-0.1v24.1h1.3c0.5,0,0.8-0.1,1.1-0.2c0.3-0.1,0.6-0.4,0.8-0.8l7.2-8.9c0.3-0.4,0.6-0.7,1-0.9
		c0.4-0.2,0.8-0.3,1.4-0.3h6.4l-9,10.8c-0.6,0.8-1.3,1.5-2.1,2c0.4,0.3,0.8,0.6,1.1,1c0.3,0.4,0.6,0.8,0.9,1.2l9.7,14.1h-6.3
		c-0.5,0-1-0.1-1.4-0.3c-0.4-0.2-0.7-0.5-1-1l-7.4-11c-0.3-0.4-0.5-0.7-0.8-0.9c-0.3-0.1-0.7-0.2-1.3-0.2h-1.6v13.3h-7v-42H33.8z"/>
</g>
</svg>
