<?xml version="1.0" encoding="utf-8"?>
<!-- Generator: Adobe Illustrator 22.0.1, SVG Export Plug-In . SVG Version: 6.00 Build 0)  -->
<svg version="1.1" id="Capa_1" xmlns="http://www.w3.org/2000/svg" xmlns:xlink="http://www.w3.org/1999/xlink" x="0px" y="0px"
	 viewBox="0 0 29.9 33.4" style="enable-background:new 0 0 29.9 33.4;" xml:space="preserve">
<style type="text/css">
	.st0{fill:#E7E9E9;}
</style>
<g>
	<path class="st0" d="M6,31.1c-0.2,0.4-0.4,0.7-0.6,1s-0.5,0.5-0.8,0.7c-0.3,0.2-0.6,0.3-1,0.4c-0.3,0.1-0.7,0.1-1,0.1h-2.8
		L11.7,2.2C12,1.5,12.4,0.9,13,0.6C13.6,0.2,14.3,0,15,0h2.8L6,31.1z"/>
</g>
<g>
	<path class="st0" d="M18.2,31.1c-0.2,0.4-0.4,0.7-0.6,1s-0.5,0.5-0.8,0.7c-0.3,0.2-0.6,0.3-1,0.4c-0.3,0.1-0.7,0.1-1,0.1H12
		L23.9,2.2c0.3-0.7,0.7-1.3,1.3-1.6c0.6-0.4,1.2-0.6,2-0.6h2.8L18.2,31.1z"/>
</g>
</svg>
